<svg width="320" height="36" viewBox="0 0 84.667 9.525" xmlns:xlink="http://www.w3.org/1999/xlink" xmlns="http://www.w3.org/2000/svg"><defs><linearGradient id="d" gradientUnits="userSpaceOnUse" x1="0" y1="0" x2="1" y2="0" gradientTransform="translate(851.668 187.75) scale(328.31)"><stop offset="0" stop-color="#9A2589"/><stop offset=".008" stop-color="#9A258A"/><stop offset=".012" stop-color="#9A258A"/><stop offset=".016" stop-color="#9B258A"/><stop offset=".023" stop-color="#9B2589"/><stop offset=".027" stop-color="#9B2589"/><stop offset=".031" stop-color="#9C2589"/><stop offset=".035" stop-color="#9C2589"/><stop offset=".039" stop-color="#9D2589"/><stop offset=".043" stop-color="#9D2589"/><stop offset=".047" stop-color="#9D2589"/><stop offset=".051" stop-color="#9E2589"/><stop offset=".055" stop-color="#9E2689"/><stop offset=".063" stop-color="#9E2689"/><stop offset=".066" stop-color="#9E2688"/><stop offset=".07" stop-color="#9E2588"/><stop offset=".074" stop-color="#9F2588"/><stop offset=".078" stop-color="#9F2588"/><stop offset=".082" stop-color="#9F2588"/><stop offset=".086" stop-color="#A02587"/><stop offset=".09" stop-color="#A02587"/><stop offset=".094" stop-color="#A02587"/><stop offset=".098" stop-color="#A12587"/><stop offset=".102" stop-color="#A12687"/><stop offset=".109" stop-color="#A12687"/><stop offset=".117" stop-color="#A22687"/><stop offset=".121" stop-color="#A22687"/><stop offset=".125" stop-color="#A32687"/><stop offset=".133" stop-color="#A32687"/><stop offset=".137" stop-color="#A42587"/><stop offset=".141" stop-color="#A42586"/><stop offset=".148" stop-color="#A42586"/><stop offset=".152" stop-color="#A52686"/><stop offset=".156" stop-color="#A52687"/><stop offset=".16" stop-color="#A52686"/><stop offset=".164" stop-color="#A62686"/><stop offset=".168" stop-color="#A62686"/><stop offset=".172" stop-color="#A62686"/><stop offset=".18" stop-color="#A72686"/><stop offset=".184" stop-color="#A72686"/><stop offset=".188" stop-color="#A72686"/><stop offset=".191" stop-color="#A82686"/><stop offset=".195" stop-color="#A82686"/><stop offset=".199" stop-color="#A82686"/><stop offset=".203" stop-color="#A92686"/><stop offset=".207" stop-color="#A92686"/><stop offset=".211" stop-color="#A92686"/><stop offset=".215" stop-color="#AA2686"/><stop offset=".219" stop-color="#AA2686"/><stop offset=".223" stop-color="#AB2686"/><stop offset=".227" stop-color="#AB2786"/><stop offset=".23" stop-color="#AB2786"/><stop offset=".234" stop-color="#AC2786"/><stop offset=".238" stop-color="#AC2786"/><stop offset=".242" stop-color="#AC2786"/><stop offset=".246" stop-color="#AC2886"/><stop offset=".25" stop-color="#AD2886"/><stop offset=".258" stop-color="#AD2886"/><stop offset=".262" stop-color="#AE2886"/><stop offset=".266" stop-color="#AE2986"/><stop offset=".273" stop-color="#AE2986"/><stop offset=".281" stop-color="#AF2986"/><stop offset=".289" stop-color="#AF2986"/><stop offset=".297" stop-color="#B02A86"/><stop offset=".301" stop-color="#B12A86"/><stop offset=".305" stop-color="#B12B86"/><stop offset=".313" stop-color="#B12B86"/><stop offset=".32" stop-color="#B12B86"/><stop offset=".324" stop-color="#B22C86"/><stop offset=".328" stop-color="#B22C86"/><stop offset=".336" stop-color="#B22C86"/><stop offset=".34" stop-color="#B32C86"/><stop offset=".344" stop-color="#B42D86"/><stop offset=".348" stop-color="#B42D86"/><stop offset=".352" stop-color="#B42D86"/><stop offset=".355" stop-color="#B52D86"/><stop offset=".359" stop-color="#B52D86"/><stop offset=".363" stop-color="#B52E86"/><stop offset=".367" stop-color="#B62E86"/><stop offset=".375" stop-color="#B62E86"/><stop offset=".379" stop-color="#B62E86"/><stop offset=".383" stop-color="#B72F86"/><stop offset=".387" stop-color="#B72F86"/><stop offset=".391" stop-color="#B72F86"/><stop offset=".395" stop-color="#B82F87"/><stop offset=".398" stop-color="#B82F87"/><stop offset=".406" stop-color="#B83087"/><stop offset=".41" stop-color="#B93087"/><stop offset=".414" stop-color="#B93187"/><stop offset=".418" stop-color="#B93187"/><stop offset=".422" stop-color="#BA3186"/><stop offset=".426" stop-color="#BA3187"/><stop offset=".43" stop-color="#BA3287"/><stop offset=".438" stop-color="#BB3287"/><stop offset=".445" stop-color="#BB3287"/><stop offset=".449" stop-color="#BC3387"/><stop offset=".453" stop-color="#BC3387"/><stop offset=".457" stop-color="#BC3387"/><stop offset=".461" stop-color="#BD3387"/><stop offset=".465" stop-color="#BD3387"/><stop offset=".469" stop-color="#BD3487"/><stop offset=".473" stop-color="#BD3487"/><stop offset=".477" stop-color="#BE3487"/><stop offset=".484" stop-color="#BE3487"/><stop offset=".488" stop-color="#BF3587"/><stop offset=".492" stop-color="#BF3587"/><stop offset=".496" stop-color="#BF3587"/><stop offset=".5" stop-color="#C03586"/><stop offset=".508" stop-color="#C03586"/><stop offset=".512" stop-color="#C13486"/><stop offset=".516" stop-color="#C13485"/><stop offset=".523" stop-color="#C13485"/><stop offset=".527" stop-color="#C23485"/><stop offset=".531" stop-color="#C23485"/><stop offset=".535" stop-color="#C33484"/><stop offset=".539" stop-color="#C33484"/><stop offset=".543" stop-color="#C33384"/><stop offset=".547" stop-color="#C33383"/><stop offset=".551" stop-color="#C33383"/><stop offset=".555" stop-color="#C33383"/><stop offset=".559" stop-color="#C33382"/><stop offset=".563" stop-color="#C43382"/><stop offset=".566" stop-color="#C43382"/><stop offset=".57" stop-color="#C53382"/><stop offset=".578" stop-color="#C53281"/><stop offset=".582" stop-color="#C63281"/><stop offset=".586" stop-color="#C63281"/><stop offset=".59" stop-color="#C63280"/><stop offset=".594" stop-color="#C63280"/><stop offset=".598" stop-color="#C63280"/><stop offset=".602" stop-color="#C73280"/><stop offset=".605" stop-color="#C73280"/><stop offset=".609" stop-color="#C7327F"/><stop offset=".613" stop-color="#C8327F"/><stop offset=".617" stop-color="#C8327F"/><stop offset=".625" stop-color="#C8327F"/><stop offset=".629" stop-color="#C9317E"/><stop offset=".633" stop-color="#C9317E"/><stop offset=".637" stop-color="#C9317D"/><stop offset=".641" stop-color="#CA317D"/><stop offset=".645" stop-color="#CA317D"/><stop offset=".648" stop-color="#CA317D"/><stop offset=".652" stop-color="#CA317D"/><stop offset=".656" stop-color="#CB317D"/><stop offset=".66" stop-color="#CB317C"/><stop offset=".664" stop-color="#CB317C"/><stop offset=".668" stop-color="#CB317C"/><stop offset=".672" stop-color="#CB307B"/><stop offset=".676" stop-color="#CC307B"/><stop offset=".68" stop-color="#CC307B"/><stop offset=".684" stop-color="#CC307B"/><stop offset=".688" stop-color="#CD307B"/><stop offset=".691" stop-color="#CD307B"/><stop offset=".695" stop-color="#CD307A"/><stop offset=".699" stop-color="#CD317A"/><stop offset=".703" stop-color="#CE317A"/><stop offset=".707" stop-color="#CE307A"/><stop offset=".711" stop-color="#CE307A"/><stop offset=".715" stop-color="#CE3079"/><stop offset=".719" stop-color="#CE3079"/><stop offset=".723" stop-color="#CF3079"/><stop offset=".727" stop-color="#D03079"/><stop offset=".734" stop-color="#D03079"/><stop offset=".742" stop-color="#D03079"/><stop offset=".746" stop-color="#D03078"/><stop offset=".75" stop-color="#D13078"/><stop offset=".758" stop-color="#D13078"/><stop offset=".766" stop-color="#D13078"/><stop offset=".77" stop-color="#D13078"/><stop offset=".773" stop-color="#D23078"/><stop offset=".781" stop-color="#D23078"/><stop offset=".789" stop-color="#D23077"/><stop offset=".797" stop-color="#D33077"/><stop offset=".805" stop-color="#D33077"/><stop offset=".809" stop-color="#D33077"/><stop offset=".813" stop-color="#D43076"/><stop offset=".816" stop-color="#D43176"/><stop offset=".82" stop-color="#D43176"/><stop offset=".828" stop-color="#D43176"/><stop offset=".832" stop-color="#D43176"/><stop offset=".836" stop-color="#D53176"/><stop offset=".844" stop-color="#D53176"/><stop offset=".848" stop-color="#D53176"/><stop offset=".852" stop-color="#D63176"/><stop offset=".859" stop-color="#D63176"/><stop offset=".863" stop-color="#D63175"/><stop offset=".867" stop-color="#D63175"/><stop offset=".871" stop-color="#D63175"/><stop offset=".875" stop-color="#D73175"/><stop offset=".879" stop-color="#D73175"/><stop offset=".883" stop-color="#D73175"/><stop offset=".887" stop-color="#D73175"/><stop offset=".891" stop-color="#D73175"/><stop offset=".906" stop-color="#D83175"/><stop offset=".91" stop-color="#D83274"/><stop offset=".914" stop-color="#D93274"/><stop offset=".922" stop-color="#D93274"/><stop offset=".926" stop-color="#D93274"/><stop offset=".93" stop-color="#D93274"/><stop offset=".934" stop-color="#D93274"/><stop offset=".938" stop-color="#DA3274"/><stop offset=".941" stop-color="#DA3274"/><stop offset=".945" stop-color="#DA3273"/><stop offset=".953" stop-color="#DA3274"/><stop offset=".957" stop-color="#DB3373"/><stop offset=".961" stop-color="#DB3373"/><stop offset=".969" stop-color="#DB3373"/><stop offset=".973" stop-color="#DB3373"/><stop offset=".977" stop-color="#DC3373"/><stop offset=".984" stop-color="#DC3373"/><stop offset=".988" stop-color="#DC3372"/><stop offset=".992" stop-color="#DC3372"/><stop offset=".996" stop-color="#DC3372"/><stop offset="1" stop-color="#DD3372"/></linearGradient><linearGradient xlink:href="#a" id="e" x1="5.977" y1="19.324" x2="37.994" y2="-5.65" gradientUnits="userSpaceOnUse" gradientTransform="matrix(.33084 0 0 .33084 .088 -.001)"/><linearGradient id="a"><stop offset="0"/><stop offset="1" stop-opacity="0"/></linearGradient><clipPath id="b"><path d="M1169.52 159.578H862.129c-5.777 0-10.461 4.692-10.461 10.461v35.41c0 5.781 4.684 10.461 10.46 10.461h307.391c5.77 0 10.461-4.68 10.461-10.46v-35.41c0-5.77-4.69-10.462-10.46-10.462zm0 0"/></clipPath><clipPath id="c"><path d="M1169.52 159.578H862.129c-5.777 0-10.461 4.692-10.461 10.461v35.41c0 5.781 4.684 10.461 10.46 10.461h307.391c5.77 0 10.461-4.68 10.461-10.46v-35.41c0-5.77-4.69-10.462-10.46-10.462"/></clipPath></defs><g clip-path="url(#b)" transform="matrix(.26458 0 0 .26458 -471.634 -367.855)"><g clip-path="url(#c)"><path fill="url(#d)" d="M851.668 159.578v56.332h328.312v-56.332zm0 0"/></g></g><g fill="#006978"><text style="line-height:1.25;-inkscape-font-specification:'Tahoma, Bold';font-variant-ligatures:normal;font-variant-caps:normal;font-variant-numeric:normal;font-variant-east-asian:normal" x="9.98" y="7.324" font-weight="700" font-size="7.056" font-family="Tahoma" stroke-width=".61" transform="translate(-.13 -.13)"><tspan style="-inkscape-font-specification:'Tahoma, Bold';font-variant-ligatures:normal;font-variant-caps:normal;font-variant-numeric:normal;font-variant-east-asian:normal" x="9.98" y="7.324"><tspan fill="#f60">SURFAUX</tspan> DYE CHEM</tspan></text><path d="M3.208 7.614l-1.644-.949v-.19l.001-.191.819-.434c.45-.238.838-.433.862-.432.023.001.384.187.802.414.417.226.774.41.793.41.061 0 .976-.499.967-.527-.005-.015-.66-.42-1.456-.902L2.905 3.94l-.007-.169-.008-.168.966-.553c.531-.305.98-.553.998-.553.018 0 .378.205.801.456l.769.457.36-.187c.198-.103.351-.196.34-.207a51.933 51.933 0 00-1.036-.607l-1.125-.65-.109-.064-1.327.766-1.326.766-.014.97-.014.97-.295.16c-.163.087-.3.158-.305.158-.005 0-.006-.592-.003-1.316l.007-1.315 1.638-.946L4.852.96l.083.049 1.647.95 1.565.904v.367l-.305.162c-.168.089-.562.29-.878.449l-.572.288-.755-.45c-.415-.249-.768-.452-.783-.452-.04-.001-.96.524-.96.548 0 .01.655.414 1.456.897l1.456.88v.375l-.971.523c-.534.288-.98.523-.99.523-.011 0-.369-.189-.795-.42-.426-.23-.79-.42-.808-.42-.055 0-.676.337-.668.362.015.046 2.254 1.321 2.299 1.31.024-.007.488-.268 1.03-.581.541-.313 1.12-.647 1.288-.742l.304-.172.001-.976.001-.975.325-.17.325-.171v2.644l-1.104.636-1.647.95-.544.315-1.644-.95z" stroke="url(#e)" stroke-width=".02" stroke-miterlimit="0" paint-order="markers stroke fill" transform="translate(-.13 -.13)"/></g></svg>